<?xml version="1.0" encoding="UTF-8" standalone="no"?>
<!-- Created with Inkscape (http://www.inkscape.org/) -->

<svg
   xmlns:dc="http://purl.org/dc/elements/1.1/"
   xmlns:cc="http://creativecommons.org/ns#"
   xmlns:rdf="http://www.w3.org/1999/02/22-rdf-syntax-ns#"
   xmlns:svg="http://www.w3.org/2000/svg"
   xmlns="http://www.w3.org/2000/svg"
   xmlns:sodipodi="http://sodipodi.sourceforge.net/DTD/sodipodi-0.dtd"
   xmlns:inkscape="http://www.inkscape.org/namespaces/inkscape"
   width="48px"
   height="48px"
   id="svg3225"
   version="1.1"
   inkscape:version="0.48.1 r9760"
   sodipodi:docname="icon-48.png">
  <defs
     id="defs3227">
    <clipPath
       clipPathUnits="userSpaceOnUse"
       id="clipPath3093">
      <path
         inkscape:connector-curvature="0"
         d="m 0.06,0.06 261.701,0 0,101.135 -261.701,0 0,-101.135 z"
         id="path3095" />
    </clipPath>
  </defs>
  <sodipodi:namedview
     id="base"
     pagecolor="#ffffff"
     bordercolor="#666666"
     borderopacity="1.0"
     inkscape:pageopacity="0.0"
     inkscape:pageshadow="2"
     inkscape:zoom="7"
     inkscape:cx="24"
     inkscape:cy="24"
     inkscape:current-layer="layer1"
     showgrid="true"
     inkscape:grid-bbox="true"
     inkscape:document-units="px"
     inkscape:window-width="1029"
     inkscape:window-height="815"
     inkscape:window-x="20"
     inkscape:window-y="42"
     inkscape:window-maximized="0" />
  <metadata
     id="metadata3230">
    <rdf:RDF>
      <cc:Work
         rdf:about="">
        <dc:format>image/svg+xml</dc:format>
        <dc:type
           rdf:resource="http://purl.org/dc/dcmitype/StillImage" />
        <dc:title></dc:title>
      </cc:Work>
    </rdf:RDF>
  </metadata>
  <g
     id="layer1"
     inkscape:label="Layer 1"
     inkscape:groupmode="layer">
    <g
       transform="matrix(0.47064361,0,0,-0.47064361,-0.02823862,53.852616)"
       id="g3120">
      <g
         id="g3089">
        <g
           clip-path="url(#clipPath3093)"
           id="g3091">
          <path
             inkscape:connector-curvature="0"
             id="path3097"
             style="fill:#2d68b0;fill-opacity:1;fill-rule:nonzero;stroke:none"
             d="m 30.001,44.178 c -10.616,0 -19.253,8.638 -19.253,19.252 0,10.618 8.637,19.253 19.253,19.253 4.561,0 8.752,-1.599 12.054,-4.261 -1.339,-0.643 -2.702,-1.19 -3.872,-1.481 -2.946,-0.736 -3.482,-3.455 -0.979,-4.709 2.503,-1.253 24.351,-9.335 24.351,-9.335 0,0 -2.273,23.181 -2.847,25.921 -0.576,2.741 -3.342,2.91 -4.804,0.249 -0.706,-1.289 -1.849,-2.76 -3.056,-4.102 -5.402,5.234 -12.751,8.466 -20.847,8.466 C 13.458,93.431 0,79.973 0,63.43 c 0,-16.542 13.458,-30 30.001,-30 3.557,0 6.971,0.625 10.139,1.768 -0.319,2.519 -0.78,6.683 -1.256,11.161 -2.659,-1.39 -5.679,-2.181 -8.883,-2.181" />
        </g>
      </g>
      <path
         inkscape:connector-curvature="0"
         id="path3107"
         style="fill:#80bb29;fill-opacity:1;fill-rule:nonzero;stroke:none"
         d="m 72.048,82.683 c 10.617,0 19.252,-8.635 19.252,-19.253 0,-10.614 -8.635,-19.252 -19.252,-19.252 -4.562,0 -8.752,1.601 -12.055,4.261 1.34,0.644 2.702,1.19 3.873,1.482 2.945,0.737 3.483,3.456 0.979,4.708 -2.504,1.253 -24.35,9.336 -24.35,9.336 0,0 2.271,-23.181 2.846,-25.921 0.575,-2.742 3.343,-2.912 4.804,-0.249 0.706,1.289 1.848,2.758 3.056,4.101 5.402,-5.234 12.75,-8.466 20.847,-8.466 16.543,0 30,13.458 30,30 0,16.544 -13.457,30.001 -30,30.001 -3.559,0 -6.972,-0.625 -10.141,-1.765 0.321,-2.52 0.781,-6.685 1.258,-11.163 2.659,1.389 5.679,2.18 8.883,2.18" />
    </g>
  </g>
</svg>
